<?xml version="1.0" encoding="UTF-8"?>
<!DOCTYPE svg PUBLIC "-//W3C//DTD SVG 1.1//EN" "http://www.w3.org/Graphics/SVG/1.1/DTD/svg11.dtd">
<!-- Creator: CorelDRAW -->
<svg xmlns="http://www.w3.org/2000/svg" xml:space="preserve" width="210mm" height="297mm" version="1.1" style="shape-rendering:geometricPrecision; text-rendering:geometricPrecision; image-rendering:optimizeQuality; fill-rule:evenodd; clip-rule:evenodd"
viewBox="0 0 21000 29700"
 xmlns:xlink="http://www.w3.org/1999/xlink"
 xmlns:xodm="http://www.corel.com/coreldraw/odm/2003">
 <defs>
  <style type="text/css">
   <![CDATA[
    .str3 {stroke:#C8C5E2;stroke-width:20;stroke-miterlimit:22.9256}
    .str0 {stroke:#9D98CA;stroke-width:20;stroke-miterlimit:22.9256}
    .str2 {stroke:#C8C5E2;stroke-width:7.62;stroke-miterlimit:22.9256}
    .str1 {stroke:#9D98CA;stroke-width:7.62;stroke-miterlimit:22.9256}
    .fil2 {fill:none}
    .fil1 {fill:#9D98CA}
    .fil5 {fill:#C8C5E2}
    .fil0 {fill:#9D98CA}
    .fil4 {fill:#C8C5E2;fill-rule:nonzero}
    .fil3 {fill:#9D98CA;fill-rule:nonzero}
   ]]>
  </style>
 </defs>
 <g id="Layer_x0020_1">
  <metadata id="CorelCorpID_0Corel-Layer"/>
  <g id="_2165703470032">
   <path class="fil0 str0" d="M7303.64 10414.94c-500.43,-772.99 1196.57,-306.24 1722.63,32.78 -5.69,-696.59 108.88,-1359.71 405.27,-1972.36 374.16,-692.27 1008.37,-734.45 1300.75,11.59 4047.74,12646.53 -2781.25,2730.09 -3428.65,1927.99zm761.66 2513.88c-54.57,-178.53 418.28,-197.44 386.03,4.21 83.75,972.37 1284.34,114.6 908.43,648.27 -206.73,254.14 -442.79,559.29 -839.2,169.93 -392.88,-445.06 -414.86,589.99 -1248.3,-8.41 -670.82,-469.28 937.58,40.02 793.04,-814zm2036.27 -303.63c422.02,-415.28 906.8,449.05 554.02,875.54 -527.69,556.18 -1025.62,-328.64 -554.02,-875.54zm-4255.65 -28.88c422.03,-415.28 906.81,449.05 554.02,875.55 -527.68,556.18 -1025.61,-328.65 -554.02,-875.55z"/>
   <g>
    <path class="fil1 str0" d="M9547.7 16787.03c-713.25,-67.35 -2296.79,175.26 -2483.75,1056.11 -121.96,574.59 2162.47,1080.92 2497,-173.57 89.2,-334.55 -39.45,47.42 100.74,-340.02 128.29,174.39 138.7,142.52 167.39,350.49 264.6,1917.17 -4130.3,2042.52 -3707.42,-111.62 304.96,-1553.48 2244.57,-2099.11 3597.67,-2082.69 359.34,47.39 612.23,377.12 564.83,736.46 -47.4,359.34 -377.12,612.23 -736.46,564.84z"/>
   </g>
   <path class="fil2" d="M9633.51 16136.38c-1010.34,-133.23 -2777.68,434.46 -3032.99,1542.39 -339.41,1472.88 3494.71,1623.86 3061.17,-349.22"/>
   <path class="fil3 str1" d="M11454.05 18750.2c-66.31,0 -125.85,-8.2 -178.61,-24.6 -53.12,-16.4 -98.04,-41 -135.12,-74.15 -37.43,-33.16 -65.95,-74.87 -86.27,-125.14 -20.32,-50.62 -30.31,-109.8 -30.31,-178.25 0,-59.9 6.42,-118.72 19.26,-176.83 12.83,-58.11 31.73,-113.73 56.32,-166.14 24.96,-52.76 55.26,-100.89 90.91,-145.1 36.01,-44.2 77.37,-82.71 124.43,-114.79 47.06,-32.44 98.75,-57.76 155.44,-75.94 56.68,-18.18 118.36,-27.09 184.31,-27.09 65.6,0 124.78,8.2 178.26,24.6 53.12,16.4 98.39,40.99 135.47,74.15 37.43,33.16 65.95,74.87 86.28,125.13 20.32,50.63 30.3,109.81 30.3,178.26 0,59.89 -6.42,118.72 -19.25,176.83 -12.84,58.11 -31.73,113.37 -55.98,165.78 -24.24,52.05 -54.54,100.53 -90.91,145.1 -36,44.56 -77.36,83.06 -124.06,115.15 -46.7,32.44 -98.75,57.75 -155.8,75.93 -57.04,18.19 -118.71,27.1 -184.67,27.1zm363.29 -680.93c0,-68.81 -16.76,-120.5 -50.63,-155.09 -33.87,-34.58 -82.35,-51.69 -145.81,-51.69 -37.43,0 -71.66,7.13 -102.32,21.39 -30.66,14.26 -58.11,33.16 -82.71,57.04 -24.96,23.53 -46.35,50.98 -64.17,82.36 -18.18,31.37 -33.16,64.17 -44.92,98.39 -12.12,33.87 -21.04,68.1 -26.74,102.68 -6.06,34.58 -8.91,67.02 -8.91,97.68 0,68.81 17.11,120.86 50.98,155.8 34.22,34.58 83.06,52.05 146.52,52.05 37.44,0 71.66,-7.13 102.32,-21.39 30.31,-14.26 58.11,-33.52 82.36,-57.4 24.24,-24.24 45.63,-51.7 63.45,-82.71 18.19,-31.02 33.16,-63.46 44.92,-97.69 12.13,-33.86 21.04,-68.45 26.74,-103.38 6.06,-34.59 8.92,-67.38 8.92,-98.04zm1024.25 -422.83c37.79,0 70.59,1.79 99.11,5.35 28.52,3.21 54.9,7.13 78.43,11.41l83.43 -412.48 253.83 0 -196.08 981.83c-4.28,22.46 -8.55,46.34 -12.48,71.66 -4.27,25.31 -8.55,56.68 -13.19,94.11 -4.63,37.08 -9.62,82 -15.33,135.12 -5.34,52.77 -11.76,117.29 -18.53,193.23l-207.85 0 8.2 -192.16c-16.04,24.24 -36.01,49.2 -60.61,74.51 -24.24,25.31 -52.4,48.49 -84.85,69.16 -32.44,21.04 -68.09,38.15 -107.66,51.7 -39.22,13.55 -81.64,20.32 -127.63,20.32 -103.03,0 -181.11,-32.09 -234.23,-95.9 -53.12,-64.17 -79.86,-155.08 -79.86,-272.73 0,-106.6 14.26,-204.99 42.78,-294.84 28.52,-90.19 69.88,-167.91 124.07,-233.15 54.19,-64.89 120.86,-115.87 200,-152.23 78.79,-36.72 168.27,-54.91 268.45,-54.91zm-370.05 718.73c0,55.61 9.62,98.04 28.52,127.27 19.25,29.24 48.12,43.85 87.34,43.85 31.73,0 65.96,-12.83 101.96,-38.5 36.37,-26.02 70.59,-58.82 103.39,-99.11 32.8,-40.64 61.32,-85.56 85.92,-134.76 24.96,-49.55 41.71,-97.68 50.62,-145.1l49.2 -249.56c-15.33,-5.34 -35.65,-10.69 -60.6,-16.04 -24.96,-5.35 -52.41,-7.84 -82.36,-7.84 -49.55,0 -92.69,8.91 -129.77,26.74 -37.43,17.46 -69.52,40.99 -96.61,69.87 -27.1,28.88 -49.56,61.68 -67.38,98.4 -17.47,37.08 -31.73,74.51 -42.07,113.01 -10.34,38.15 -17.83,75.94 -21.75,113.02 -4.28,37.43 -6.41,70.23 -6.41,98.75zm1193.24 -81.29c-1.43,8.2 -2.5,17.83 -3.21,28.53 -0.71,11.05 -1.07,22.81 -1.07,36 0,63.46 19.96,112.3 59.89,146.89 40.29,34.58 99.11,51.69 177.19,51.69 52.05,0 108.38,-3.92 168.27,-12.12 59.9,-7.85 117.29,-19.61 172.2,-34.94l0 198.93c-58.47,14.98 -121.22,27.45 -188.6,37.08 -67.02,9.63 -134.05,14.26 -200.71,14.26 -68.1,0 -129.42,-8.2 -183.96,-24.96 -54.19,-16.75 -100.18,-41.71 -137.62,-74.15 -37.43,-32.8 -66.31,-73.8 -86.63,-123.35 -20.32,-49.56 -30.3,-107.31 -30.3,-173.27 0,-96.25 14.97,-187.52 44.56,-273.8 29.59,-86.27 71.31,-161.85 125.14,-227.09 54.19,-64.89 119.07,-116.58 195.01,-154.37 75.94,-38.15 160.43,-57.04 253.83,-57.04 60.61,0 114.44,7.13 161.5,21.03 47.06,13.9 86.64,33.16 119.08,58.47 32.44,24.95 57.04,55.26 74.15,90.2 17.11,35.29 25.67,74.15 25.67,116.57 0,53.84 -10.69,102.32 -32.44,145.82 -21.75,43.49 -56.33,80.92 -104.46,111.94 -48.13,31.02 -110.87,54.9 -187.88,72.02 -77.01,17.11 -170.41,25.66 -280.57,25.66l-139.04 0zm151.51 -181.82c73.09,0 131.91,-4.27 176.48,-12.47 44.56,-8.56 79.14,-19.25 104.1,-32.8 24.6,-13.91 41,-29.59 49.55,-47.77 8.2,-18.19 12.48,-36.73 12.48,-56.33 0,-37.08 -14.26,-66.31 -42.78,-87.7 -28.52,-21.75 -66.67,-32.45 -114.08,-32.45 -38.15,0 -73.44,7.13 -105.53,21.39 -32.09,14.26 -60.25,33.52 -85.21,58.11 -24.6,24.25 -45.63,52.77 -63.46,85.57 -17.82,32.8 -32.08,67.38 -42.42,104.45l110.87 0z"/>
   <path class="fil4 str2" d="M12303.85 15725.23c-5.7,45.27 -12.47,89.48 -21.03,132.62 -8.2,43.14 -18.9,86.63 -32.09,130.48 -13.19,43.85 -29.59,88.77 -48.84,134.4 -18.89,45.99 -42.07,94.48 -69.16,145.82 -27.45,50.98 -58.83,105.52 -94.83,163.28 -35.65,57.75 -77.01,120.14 -123.71,186.81 -59.9,85.56 -115.15,160.07 -166.14,223.53 -50.62,63.1 -98.39,117.29 -142.96,161.86 -44.56,44.2 -86.27,81.28 -125.13,110.16 -39.22,29.23 -77.01,51.69 -113.73,67.74 -37.07,16.04 -73.08,27.09 -108.02,33.51 -35.29,6.06 -70.95,9.27 -106.95,9.27 -26.03,0 -48.49,-1.07 -68.1,-2.85 -19.25,-1.79 -36.72,-3.57 -52.05,-5.71l0 -216.04c20.32,3.56 41,6.06 63.1,7.84 21.75,1.78 43.5,2.85 65.25,2.85 28.87,0 55.97,-3.56 80.57,-10.34 24.6,-7.13 49.55,-19.25 75.22,-36.72 25.31,-17.47 52.05,-40.64 79.86,-69.52 27.81,-28.87 58.82,-64.88 93.4,-108.02l-209.27 -1060.97 265.25 0 148.66 820.68c42.07,-62.03 79.5,-119.07 111.95,-171.48 32.44,-52.05 60.25,-101.25 84.13,-146.88 23.53,-45.63 43.85,-89.13 60.61,-130.48 16.4,-41.72 30.3,-82.36 41,-122.64 11.05,-39.93 19.61,-80.22 26.38,-121.22 6.42,-40.64 11.41,-83.42 14.97,-127.98l271.66 0zm499.48 1080.22c-37.44,0 -70.95,-1.78 -100.89,-5.35 -29.6,-3.2 -55.26,-7.13 -76.65,-11.4l-3.57 18.18 -78.79 394.3 -254.9 0 197.5 -981.83c3.93,-21.75 8.2,-45.28 11.77,-70.95 3.92,-26.02 8.2,-57.39 12.83,-94.47 4.28,-37.44 9.27,-82.36 14.98,-135.48 5.7,-52.76 12.12,-117.29 19.96,-193.22l207.85 0 -9.63 192.87c16.04,-24.6 36.36,-49.2 61.32,-74.87 24.6,-25.31 53.12,-48.48 85.56,-69.52 32.44,-20.68 68.1,-38.14 107.67,-51.69 39.21,-13.55 81.64,-20.32 126.56,-20.32 103.74,0 182.18,32.08 234.94,96.25 53.12,64.18 79.5,154.73 79.5,271.66 0,107.31 -14.26,206.07 -42.78,295.91 -28.52,89.84 -70.23,167.2 -124.42,232.44 -54.55,65.24 -121.22,115.87 -200,152.59 -78.79,36.72 -168.28,54.9 -268.81,54.9zm370.77 -718.72c0,-55.62 -9.63,-98.04 -28.88,-127.28 -18.89,-29.23 -48.13,-43.85 -86.99,-43.85 -21.03,0 -43.14,6.06 -67.02,17.83 -23.53,11.76 -47.06,27.81 -70.23,48.48 -23.53,20.32 -45.99,44.57 -68.1,72.02 -21.74,27.45 -41.71,56.68 -59.89,87.7 -18.18,31.02 -33.87,62.75 -47.06,95.54 -13.19,32.45 -22.82,64.53 -29.23,95.91l-49.92 249.55c14.98,5.35 34.94,10.7 60.25,16.05 25.32,5.34 53.12,7.84 83.07,7.84 49.56,0 93.05,-8.91 130.13,-26.74 37.43,-17.47 69.52,-41 96.97,-69.88 27.09,-28.87 49.55,-61.67 67.02,-98.39 17.11,-37.08 31.02,-74.51 41.71,-113.02 10.34,-38.14 17.83,-75.58 21.75,-112.65 4.28,-36.72 6.42,-69.88 6.42,-99.11zm1000.72 699.47l139.4 -691.63c11.05,-57.75 9.63,-101.96 -4.63,-132.98 -14.26,-30.66 -38.86,-45.99 -74.51,-45.99 -22.11,0 -45.28,6.06 -69.88,17.83 -24.24,11.76 -48.13,27.81 -71.66,48.48 -23.89,20.68 -46.7,44.57 -68.81,72.02 -22.46,27.45 -42.42,56.68 -60.6,87.7 -17.83,31.02 -33.87,62.75 -47.42,95.54 -13.55,32.8 -23.17,64.53 -29.59,95.91l-90.55 453.12 -254.91 0 295.19 -1475.95 254.91 0 -72.73 363.64 -75.22 219.97c18.89,-29.95 41.35,-56.69 67.38,-80.22 26.02,-23.89 54.54,-44.21 85.2,-60.61 30.66,-16.75 63.46,-29.59 98.4,-38.14 34.94,-8.92 70.23,-13.19 106.6,-13.19 56.32,0 104.45,9.27 143.67,27.8 39.57,18.19 70.23,44.92 92.69,79.15 22.46,34.58 36.37,76.29 41.71,125.49 5.71,49.2 2.14,104.46 -10.34,165.78l-139.39 686.28 -254.91 0zm851 -442.79c-1.43,8.2 -2.5,17.83 -3.21,28.53 -0.71,11.05 -1.07,22.81 -1.07,36 0,63.46 19.96,112.3 59.89,146.89 40.29,34.58 99.11,51.69 177.19,51.69 52.05,0 108.38,-3.92 168.27,-12.12 59.9,-7.85 117.29,-19.61 172.2,-34.94l0 198.93c-58.47,14.98 -121.22,27.45 -188.6,37.08 -67.02,9.63 -134.05,14.26 -200.71,14.26 -68.1,0 -129.42,-8.2 -183.96,-24.96 -54.19,-16.75 -100.18,-41.71 -137.62,-74.15 -37.43,-32.8 -66.31,-73.8 -86.63,-123.35 -20.32,-49.56 -30.3,-107.31 -30.3,-173.27 0,-96.25 14.97,-187.52 44.56,-273.8 29.59,-86.27 71.31,-161.85 125.14,-227.09 54.19,-64.89 119.07,-116.58 195.01,-154.37 75.94,-38.15 160.43,-57.04 253.83,-57.04 60.61,0 114.44,7.13 161.5,21.03 47.06,13.9 86.64,33.16 119.08,58.47 32.44,24.95 57.04,55.26 74.15,90.2 17.11,35.29 25.67,74.15 25.67,116.57 0,53.84 -10.69,102.32 -32.44,145.82 -21.75,43.49 -56.33,80.92 -104.46,111.94 -48.13,31.02 -110.87,54.9 -187.88,72.02 -77.01,17.11 -170.41,25.66 -280.57,25.66l-139.04 0zm151.51 -181.82c73.09,0 131.91,-4.27 176.48,-12.47 44.56,-8.56 79.14,-19.25 104.1,-32.8 24.6,-13.91 41,-29.59 49.55,-47.77 8.2,-18.19 12.48,-36.73 12.48,-56.33 0,-37.08 -14.26,-66.31 -42.78,-87.7 -28.52,-21.75 -66.67,-32.45 -114.08,-32.45 -38.15,0 -73.44,7.13 -105.53,21.39 -32.09,14.26 -60.25,33.52 -85.21,58.11 -24.6,24.25 -45.63,52.77 -63.46,85.57 -17.82,32.8 -32.08,67.38 -42.42,104.45l110.87 0zm1529.44 -23.53c9.62,-42.42 14.97,-78.07 15.68,-106.59 0.72,-28.52 -2.85,-51.34 -10.34,-68.45 -7.84,-17.11 -19.6,-29.24 -35.29,-36.37 -15.69,-7.48 -34.94,-11.05 -57.76,-11.05 -33.51,0 -67.73,13.91 -103.03,41.36 -35.29,27.45 -68.8,63.46 -100.53,108.38 -31.38,44.92 -59.9,96.61 -84.85,154.72 -25.31,58.11 -43.85,117.65 -56.69,178.97l-76.29 387.17 -260.97 0 113.02 -566.85c3.92,-21.39 8.2,-45.28 12.48,-70.95 3.92,-25.67 8.55,-57.39 12.83,-94.47 4.63,-37.44 9.63,-82.36 15.33,-135.48 5.35,-52.76 12.12,-117.29 19.61,-193.22l207.13 0 -10.69 207.84c15.33,-27.81 34.93,-55.61 59.18,-83.07 23.88,-27.8 51.69,-52.4 83.06,-74.51 31.38,-22.1 66.67,-39.92 105.89,-53.47 39.21,-13.55 82.35,-20.32 129.05,-20.32 60.25,0 111.95,9.62 154.73,29.23 42.78,19.61 75.93,47.77 99.46,84.85 23.89,37.08 37.79,82.35 42.43,136.54 4.63,54.19 -1.07,115.87 -17.11,185.74l-256.33 0z"/>
   <path class="fil5 str3" d="M6091.72 12486.56c255.52,0 462.62,259.8 462.62,580.25 0,320.45 -207.1,580.24 -462.62,580.24 -255.51,0 -462.61,-259.79 -462.61,-580.24 0,-320.45 207.1,-580.25 462.61,-580.25z"/>
  </g>
 </g>
 <g id="Layer_x0020_1_0">
  <metadata id="CorelCorpID_1Corel-Layer"/>
 </g>
</svg>
